<?xml version="1.0" encoding="UTF-8" standalone="no"?>
<!-- Created with Inkscape (http://www.inkscape.org/) -->

<svg
   xmlns:dc="http://purl.org/dc/elements/1.1/"
   xmlns:cc="http://creativecommons.org/ns#"
   xmlns:rdf="http://www.w3.org/1999/02/22-rdf-syntax-ns#"
   xmlns:svg="http://www.w3.org/2000/svg"
   xmlns="http://www.w3.org/2000/svg"
   xmlns:sodipodi="http://sodipodi.sourceforge.net/DTD/sodipodi-0.dtd"
   xmlns:inkscape="http://www.inkscape.org/namespaces/inkscape"
   id="svg6986"
   version="1.1"
   inkscape:version="0.91 r13725"
   width="175"
   height="375"
   viewBox="0 0 175 375"
   sodipodi:docname="background-cutout-DNA.svg">
  <metadata
     id="metadata6992">
    <rdf:RDF>
      <cc:Work
         rdf:about="">
        <dc:format>image/svg+xml</dc:format>
        <dc:type
           rdf:resource="http://purl.org/dc/dcmitype/StillImage" />
        <dc:title></dc:title>
      </cc:Work>
    </rdf:RDF>
  </metadata>
  <defs
     id="defs6990" />
  <sodipodi:namedview
     pagecolor="#ffffff"
     bordercolor="#666666"
     borderopacity="1"
     objecttolerance="10"
     gridtolerance="10"
     guidetolerance="10"
     inkscape:pageopacity="0"
     inkscape:pageshadow="2"
     inkscape:window-width="805"
     inkscape:window-height="859"
     id="namedview6988"
     showgrid="false"
     inkscape:zoom="1.2586667"
     inkscape:cx="60.166704"
     inkscape:cy="153.1639"
     inkscape:window-x="0"
     inkscape:window-y="0"
     inkscape:window-maximized="0"
     inkscape:current-layer="svg6986" />
  <path
     style="fill:#ffffff;fill-opacity:1;stroke:#000000;stroke-width:0.99571997;stroke-opacity:0"
     d="M -0.84570312 0.001953125 L -0.84570312 375.00195 L 145.09961 375.00195 C 145.01212 374.92315 144.93578 374.82183 144.83594 374.66211 C 144.04477 373.39652 133.27149 364.00706 120.68555 355.13281 C 98.766229 339.67768 89.758552 321.23556 94.693359 290 C 95.406663 285.48504 95.394579 281.36226 94.652344 276.5 C 89.530323 242.94639 96.858947 224.76968 122.86133 206.53125 C 139.89911 194.58071 144.91534 190.59945 144.95508 189 C 144.99798 187.273 137.60857 181.20409 124 171.79102 C 97.407614 153.39702 89.416211 134.10045 94.683594 101 C 95.393488 96.538998 95.396571 92.461002 94.691406 88 C 89.603126 55.809607 96.87831 36.893755 121.16211 19.175781 C 125.44052 16.054163 132.5543 10.870699 136.9707 7.65625 C 141.38711 4.4418009 145.49609 0.70898838 145.49609 0.2109375 C 145.4961 0.11025557 145.65203 0.047283874 145.88867 0.001953125 L -0.84570312 0.001953125 z M 160.87695 0.001953125 L 161.68945 4.75 C 162.13565 7.3625 162.46369 16.25 162.41992 24.5 L 161.94336 38.705078 L 160.14258 46.087891 C 158.34876 53.441919 151.05355 63.257169 146.07422 67.082031 C 144.34327 68.411653 141.48017 70.664075 139.71289 72.087891 C 137.94561 73.511708 131.775 77.949522 126 81.949219 C 106.45306 95.487201 105.80847 92.540219 132.5 111.66602 C 147.15895 122.16988 151.17475 125.90449 155.44141 133 C 162.67338 145.02685 162.92852 148.11599 162.24023 215.5 L 162.19531 223.64062 L 160.07422 235.33008 C 157.98737 246.83017 148.61136 254.54186 129.5 268.04883 C 106.97307 283.96975 107.1503 282.13684 126.7832 296.03711 C 158.84125 318.73449 164.63406 329.69713 162.51172 363.66406 L 161.10742 375 L 151.95117 375 C 151.90586 375 151.89234 375.00191 151.84766 375.00195 L 175 375.00195 L 175 0.001953125 L 160.87695 0.001953125 z M 157.40234 13.039062 C 156.289 12.974457 154.41006 14.136921 151.25 16.498047 C 145.6108 20.711531 145.68269 22 154 22 L 159 22 L 159 19.433594 C 159 15.233258 158.83379 13.122127 157.40234 13.039062 z M 139.27539 27 L 135.38672 30.085938 C 130.41835 34.030822 130.6929 33.694051 131.45898 34.933594 C 132.20712 36.144112 152.83137 36.412001 154.61133 35.234375 C 156.22152 34.169067 159.03044 28.364424 158.29297 27.626953 C 157.94824 27.282222 153.5284 27 148.4707 27 L 139.27539 27 z M 130.73047 39.964844 C 126.24818 40.036395 122.26428 40.338156 120.81445 40.904297 C 117.48027 42.206256 109.88394 49.001864 110.55273 50.083984 C 110.86409 50.587783 117.6272 51 125.58203 51 L 140.04492 51 L 144.53125 46.863281 L 149.01953 42.728516 L 147.88672 41.363281 C 147.05787 40.364586 138.20096 39.845592 130.73047 39.964844 z M 104.96094 54.939453 L 102.48047 57.615234 C 97.203149 63.309554 98.968505 64.810422 111.08008 64.921875 L 119.6582 65 L 125.08008 61.212891 C 132.49405 56.033266 131.8692 55.5424 117.48242 55.220703 L 104.96094 54.939453 z M 103.5 69 C 95.677492 69 96.20114 68.939319 97.488281 76.962891 C 98.824474 85.29223 99.282752 84.508208 106.42383 77.076172 C 109.58021 73.791187 111.06694 71.615874 110.66797 70.576172 L 110.0625 69 L 103.5 69 z M 100.70508 106.64453 L 98.970703 108.78711 C 96.557575 111.7672 95.469204 118.0476 97.177734 119.13086 C 98.712815 120.10415 107.09693 120.28325 109.41797 119.39258 C 112.07444 118.3732 111.22656 116.48482 105.85352 111.45898 L 100.70508 106.64453 z M 120.06641 123.92773 L 110.2832 124.21289 L 100.5 124.5 L 100.20117 126.5918 C 100.02395 127.83236 101.10214 129.96904 102.85156 131.8418 L 105.80273 135 L 116.82031 135 C 122.87966 135 128.54799 134.72643 129.41797 134.39258 C 132.15424 133.34258 131.14936 131.61972 125.52148 127.71289 L 120.06641 123.92773 z M 125.12891 138 C 108.15343 138 107.18317 139.13079 117.97266 146.3457 L 120.44531 148 L 134.05664 148 C 141.54259 148 147.9349 147.73112 148.26367 147.40234 C 149.4408 146.22522 147.68865 143.88164 143.44922 140.96484 L 139.14062 138 L 125.12891 138 z M 154.91797 152.93945 L 142.70898 153.21875 C 129.00562 153.53354 128.39336 153.99885 135.41992 158.75 L 140.22656 162 L 149.11328 162 L 158 162 L 158 160.45117 C 158 159.59886 157.30676 157.55936 156.45898 155.91992 L 154.91797 152.93945 z M 153.5 167 C 147.07453 167 147.06154 167.02677 151.08398 172.10547 C 154.50432 176.424 156.41169 176.9685 157.96484 174.06641 C 158.53419 173.00257 159 170.97757 159 169.56641 L 159 167 L 153.5 167 z M 155.64648 201.98438 C 154.29894 202.08092 152.68889 203.04717 151.11328 205.00781 C 147.1758 209.90747 147.78007 211.19236 153.83984 210.80078 L 158.5 210.5 L 158.82617 208.19141 C 159.40891 204.08031 157.89238 201.82347 155.64648 201.98438 z M 158 214.80078 L 149.24609 215.15039 L 140.49414 215.5 L 135.74805 218.5 C 127.67575 223.60338 129.0901 224.80739 143.29492 224.92188 L 153.0918 225 L 155.54492 222.54492 C 156.91364 221.17621 158 218.92019 158 217.44531 L 158 214.80078 z M 134.69141 229.03516 C 120.87251 229.07226 119.8366 229.33248 114.14844 234.18555 C 108.22965 239.23539 109.43994 239.81749 126.09961 239.92188 L 138.69922 240 L 142.59961 237.16602 C 152.31254 230.10984 151.22442 228.99074 134.69141 229.03516 z M 105.17773 243 L 102.58984 246.07617 C 101.16595 247.76836 100 250.01836 100 251.07617 L 100 253 L 110.64062 253 L 121.28125 253 L 126.14062 249.29492 C 128.81304 247.25691 131 245.00691 131 244.29492 L 131 243 L 118.08984 243 L 105.17773 243 z M 95.738281 258 L 96.28125 261.25 C 97.932023 271.12903 99.596944 271.8055 106.21484 265.28711 C 112.87099 258.73105 112.58605 258 103.36914 258 L 95.738281 258 z M 100.33203 294.89648 L 99.310547 296.19727 C 97.962984 297.91652 96 303.81731 96 306.14844 L 96 308 L 103.5 308 C 108.93974 308 111 307.6482 111 306.7168 C 111 306.01051 108.59986 303.06146 105.66602 300.16406 L 100.33203 294.89648 z M 100 313 L 100 314.86523 C 100 315.89106 100.93235 317.91606 102.07227 319.36523 L 104.14453 322 L 117.07227 322 L 130 322 L 130 320.60352 C 130 319.83585 127.82276 317.81085 125.16211 316.10352 L 120.32422 313 L 110.16211 313 L 100 313 z M 111 327 L 111 328.40625 C 111 329.17977 113.1375 331.39722 115.75 333.33398 L 120.5 336.85547 L 134.19141 336.92773 C 142.63764 336.97223 148.12639 336.60217 148.52148 335.96289 C 148.87372 335.39297 147.37929 333.14297 145.19922 330.96289 L 141.23438 327 L 126.11719 327 L 111 327 z M 143.46094 342 C 130.21666 342 129.45279 342.52757 135.67969 347.37891 L 140.32812 351 L 149.10547 351 C 153.93275 351 158.1393 350.58395 158.45312 350.07617 C 158.76695 349.56839 158.0728 347.54339 156.91211 345.57617 L 154.80273 342 L 143.46094 342 z M 156.78711 355.91211 C 155.28063 355.8717 153.09394 355.9416 150.00977 356.00586 C 144.53466 356.11993 148.3594 357.29268 151.61914 361.56641 C 154.74144 365.65994 156.59 366.00485 157.83984 362.45312 C 159.70427 357.15492 161.30654 356.03334 156.78711 355.91211 z "
     id="rect7029" />
</svg>
