<?xml version="1.0" encoding="UTF-8" standalone="no"?>
<!-- Created with Inkscape (http://www.inkscape.org/) -->

<svg
   xmlns:dc="http://purl.org/dc/elements/1.1/"
   xmlns:cc="http://creativecommons.org/ns#"
   xmlns:rdf="http://www.w3.org/1999/02/22-rdf-syntax-ns#"
   xmlns:svg="http://www.w3.org/2000/svg"
   xmlns="http://www.w3.org/2000/svg"
   xmlns:sodipodi="http://sodipodi.sourceforge.net/DTD/sodipodi-0.dtd"
   xmlns:inkscape="http://www.inkscape.org/namespaces/inkscape"
   width="100"
   height="100"
   viewBox="0 0 100 100"
   id="svg4635"
   version="1.1"
   inkscape:version="0.91 r13725"
   sodipodi:docname="border_dots-light-mauve.svg">
  <defs
     id="defs4637" />
  <sodipodi:namedview
     id="base"
     pagecolor="#ffffff"
     bordercolor="#666666"
     borderopacity="1.0"
     inkscape:pageopacity="0.0"
     inkscape:pageshadow="2"
     inkscape:zoom="4"
     inkscape:cx="63.90327"
     inkscape:cy="51.213526"
     inkscape:document-units="px"
     inkscape:current-layer="layer1"
     showgrid="false"
     units="px"
     showguides="true"
     inkscape:window-width="664"
     inkscape:window-height="642"
     inkscape:window-x="10"
     inkscape:window-y="0"
     inkscape:window-maximized="0"
     inkscape:guide-bbox="true">
    <sodipodi:guide
       position="33.33,33.33"
       orientation="1,0"
       id="guide5468"
       inkscape:label=""
       inkscape:color="rgb(0,0,255)" />
    <sodipodi:guide
       position="66.66,66.66"
       orientation="1,0"
       id="guide5470"
       inkscape:label=""
       inkscape:color="rgb(0,0,255)" />
    <sodipodi:guide
       position="33.33,33.33"
       orientation="0,1"
       id="guide5472"
       inkscape:label=""
       inkscape:color="rgb(0,0,255)" />
    <sodipodi:guide
       position="66.66,66.66"
       orientation="0,1"
       id="guide5474"
       inkscape:label=""
       inkscape:color="rgb(0,0,255)" />
  </sodipodi:namedview>
  <metadata
     id="metadata4640">
    <rdf:RDF>
      <cc:Work
         rdf:about="">
        <dc:format>image/svg+xml</dc:format>
        <dc:type
           rdf:resource="http://purl.org/dc/dcmitype/StillImage" />
        <dc:title></dc:title>
      </cc:Work>
    </rdf:RDF>
  </metadata>
  <g
     inkscape:label="Layer 1"
     inkscape:groupmode="layer"
     id="layer1"
     transform="translate(0,-952.36216)">
    <path
       style="fill:#c6b1ad;fill-rule:evenodd;stroke:#000000;stroke-width:1.24324703px;stroke-linecap:butt;stroke-linejoin:miter;stroke-opacity:0;fill-opacity:1"
       id="path5476"
       sodipodi:type="arc"
       sodipodi:cx="16.66501"
       sodipodi:cy="1035.6968"
       sodipodi:rx="14.04088"
       sodipodi:ry="14.041247"
       sodipodi:start="5.9861128"
       sodipodi:end="5.9855085"
       d="m 30.090865,1031.5866 a 14.04088,14.041247 0 0 1 -9.313749,17.5358 14.04088,14.041247 0 0 1 -17.536718,-9.3114 14.04088,14.041247 0 0 1 9.308451,-17.5386 14.04088,14.041247 0 0 1 17.53953,9.3061"
       sodipodi:open="true" />
    <path
       sodipodi:open="true"
       d="m 63.420865,1031.5866 a 14.04088,14.041247 0 0 1 -9.313749,17.5358 14.04088,14.041247 0 0 1 -17.536718,-9.3114 14.04088,14.041247 0 0 1 9.30845,-17.5386 14.04088,14.041247 0 0 1 17.539531,9.3061"
       sodipodi:end="5.9855085"
       sodipodi:start="5.9861128"
       sodipodi:ry="14.041247"
       sodipodi:rx="14.04088"
       sodipodi:cy="1035.6968"
       sodipodi:cx="49.99501"
       sodipodi:type="arc"
       id="path6026"
       style="fill:#c6b1ad;fill-opacity:1;fill-rule:evenodd;stroke:#000000;stroke-width:1.24324703px;stroke-linecap:butt;stroke-linejoin:miter;stroke-opacity:0" />
    <path
       style="fill:#c6b1ad;fill-opacity:1;fill-rule:evenodd;stroke:#000000;stroke-width:1.24324703px;stroke-linecap:butt;stroke-linejoin:miter;stroke-opacity:0"
       id="path6028"
       sodipodi:type="arc"
       sodipodi:cx="82.99501"
       sodipodi:cy="1035.6968"
       sodipodi:rx="14.04088"
       sodipodi:ry="14.041247"
       sodipodi:start="5.9861128"
       sodipodi:end="5.9855085"
       d="m 96.420865,1031.5866 a 14.04088,14.041247 0 0 1 -9.313749,17.5358 14.04088,14.041247 0 0 1 -17.536718,-9.3114 14.04088,14.041247 0 0 1 9.30845,-17.5386 14.04088,14.041247 0 0 1 17.539531,9.3061"
       sodipodi:open="true" />
    <path
       sodipodi:open="true"
       d="m 96.420865,998.25664 a 14.04088,14.041247 0 0 1 -9.313749,17.53576 14.04088,14.041247 0 0 1 -17.536718,-9.3113 14.04088,14.041247 0 0 1 9.30845,-17.53862 14.04088,14.041247 0 0 1 17.539531,9.30604"
       sodipodi:end="5.9855085"
       sodipodi:start="5.9861128"
       sodipodi:ry="14.041247"
       sodipodi:rx="14.04088"
       sodipodi:cy="1002.3668"
       sodipodi:cx="82.99501"
       sodipodi:type="arc"
       id="path6030"
       style="fill:#c6b1ad;fill-opacity:1;fill-rule:evenodd;stroke:#000000;stroke-width:1.24324703px;stroke-linecap:butt;stroke-linejoin:miter;stroke-opacity:0" />
    <path
       style="fill:#c6b1ad;fill-opacity:1;fill-rule:evenodd;stroke:#000000;stroke-width:1.24324703px;stroke-linecap:butt;stroke-linejoin:miter;stroke-opacity:0"
       id="path6032"
       sodipodi:type="arc"
       sodipodi:cx="82.99501"
       sodipodi:cy="969.36676"
       sodipodi:rx="14.04088"
       sodipodi:ry="14.041247"
       sodipodi:start="5.9861128"
       sodipodi:end="5.9855085"
       d="m 96.420865,965.25658 a 14.04088,14.041247 0 0 1 -9.313749,17.53577 14.04088,14.041247 0 0 1 -17.536718,-9.31135 14.04088,14.041247 0 0 1 9.30845,-17.53858 14.04088,14.041247 0 0 1 17.539531,9.30604"
       sodipodi:open="true" />
    <path
       sodipodi:open="true"
       d="m 30.090865,965.25658 a 14.04088,14.041247 0 0 1 -9.313749,17.53577 14.04088,14.041247 0 0 1 -17.536718,-9.31135 14.04088,14.041247 0 0 1 9.308451,-17.53858 14.04088,14.041247 0 0 1 17.53953,9.30604"
       sodipodi:end="5.9855085"
       sodipodi:start="5.9861128"
       sodipodi:ry="14.041247"
       sodipodi:rx="14.04088"
       sodipodi:cy="969.36676"
       sodipodi:cx="16.66501"
       sodipodi:type="arc"
       id="path6034"
       style="fill:#c6b1ad;fill-opacity:1;fill-rule:evenodd;stroke:#000000;stroke-width:1.24324703px;stroke-linecap:butt;stroke-linejoin:miter;stroke-opacity:0" />
    <path
       style="fill:#c6b1ad;fill-opacity:1;fill-rule:evenodd;stroke:#000000;stroke-width:1.24324703px;stroke-linecap:butt;stroke-linejoin:miter;stroke-opacity:0"
       id="path6036"
       sodipodi:type="arc"
       sodipodi:cx="49.99501"
       sodipodi:cy="969.36676"
       sodipodi:rx="14.04088"
       sodipodi:ry="14.041247"
       sodipodi:start="5.9861128"
       sodipodi:end="5.9855085"
       d="m 63.420865,965.25658 a 14.04088,14.041247 0 0 1 -9.313749,17.53577 14.04088,14.041247 0 0 1 -17.536718,-9.31135 14.04088,14.041247 0 0 1 9.30845,-17.53858 14.04088,14.041247 0 0 1 17.539531,9.30604"
       sodipodi:open="true" />
    <path
       sodipodi:open="true"
       d="m 30.090865,998.25664 a 14.04088,14.041247 0 0 1 -9.313749,17.53576 14.04088,14.041247 0 0 1 -17.536718,-9.3113 14.04088,14.041247 0 0 1 9.308451,-17.53862 14.04088,14.041247 0 0 1 17.53953,9.30604"
       sodipodi:end="5.9855085"
       sodipodi:start="5.9861128"
       sodipodi:ry="14.041247"
       sodipodi:rx="14.04088"
       sodipodi:cy="1002.3668"
       sodipodi:cx="16.66501"
       sodipodi:type="arc"
       id="path6038"
       style="fill:#c6b1ad;fill-opacity:1;fill-rule:evenodd;stroke:#000000;stroke-width:1.24324703px;stroke-linecap:butt;stroke-linejoin:miter;stroke-opacity:0" />
  </g>
</svg>
