<?xml version="1.0" encoding="UTF-8" standalone="no"?>
<!-- Created with Inkscape (http://www.inkscape.org/) -->

<svg
   xmlns:dc="http://purl.org/dc/elements/1.1/"
   xmlns:cc="http://creativecommons.org/ns#"
   xmlns:rdf="http://www.w3.org/1999/02/22-rdf-syntax-ns#"
   xmlns:svg="http://www.w3.org/2000/svg"
   xmlns="http://www.w3.org/2000/svg"
   xmlns:sodipodi="http://sodipodi.sourceforge.net/DTD/sodipodi-0.dtd"
   xmlns:inkscape="http://www.inkscape.org/namespaces/inkscape"
   width="100"
   height="100"
   viewBox="0 0 100 100"
   id="svg4635"
   version="1.1"
   inkscape:version="0.91 r13725"
   sodipodi:docname="border_dots-light-mauve-sm.svg">
  <defs
     id="defs4637" />
  <sodipodi:namedview
     id="base"
     pagecolor="#ffffff"
     bordercolor="#666666"
     borderopacity="1.0"
     inkscape:pageopacity="0.0"
     inkscape:pageshadow="2"
     inkscape:zoom="4"
     inkscape:cx="61.808126"
     inkscape:cy="40.753276"
     inkscape:document-units="px"
     inkscape:current-layer="layer1"
     showgrid="false"
     units="px"
     showguides="true"
     inkscape:window-width="916"
     inkscape:window-height="826"
     inkscape:window-x="10"
     inkscape:window-y="0"
     inkscape:window-maximized="0"
     inkscape:guide-bbox="true">
    <sodipodi:guide
       position="66.66,66.66"
       orientation="1,0"
       id="guide5470"
       inkscape:label=""
       inkscape:color="rgb(0,0,255)" />
    <sodipodi:guide
       position="33.33,33.33"
       orientation="0,1"
       id="guide5472"
       inkscape:label=""
       inkscape:color="rgb(0,0,255)" />
    <sodipodi:guide
       position="66.66,66.66"
       orientation="0,1"
       id="guide5474"
       inkscape:label=""
       inkscape:color="rgb(0,0,255)" />
    <sodipodi:guide
       position="33.33,33.33"
       orientation="1,0"
       id="guide6063"
       inkscape:label=""
       inkscape:color="rgb(0,0,255)" />
  </sodipodi:namedview>
  <metadata
     id="metadata4640">
    <rdf:RDF>
      <cc:Work
         rdf:about="">
        <dc:format>image/svg+xml</dc:format>
        <dc:type
           rdf:resource="http://purl.org/dc/dcmitype/StillImage" />
        <dc:title></dc:title>
      </cc:Work>
    </rdf:RDF>
  </metadata>
  <g
     inkscape:label="Layer 1"
     inkscape:groupmode="layer"
     id="layer1"
     transform="translate(0,-952.36216)">
    <path
       style="fill:#c6b1ad;fill-opacity:1;fill-rule:evenodd;stroke:#000000;stroke-width:1.07368755px;stroke-linecap:butt;stroke-linejoin:miter;stroke-opacity:0"
       id="path6028"
       sodipodi:type="arc"
       sodipodi:cx="82.995003"
       sodipodi:cy="1035.6971"
       sodipodi:rx="12.126168"
       sodipodi:ry="12.125994"
       sodipodi:start="5.9861128"
       sodipodi:end="5.9855085"
       d="m 94.590015,1032.1476 a 12.126168,12.125994 0 0 1 -8.043662,15.1439 12.126168,12.125994 0 0 1 -15.145289,-8.0413 12.126168,12.125994 0 0 1 8.039085,-15.1463 12.126168,12.125994 0 0 1 15.147719,8.0367"
       sodipodi:open="true" />
    <path
       sodipodi:open="true"
       d="m 94.590015,1032.1476 a 12.126168,12.125994 0 0 1 -8.043662,15.1439 12.126168,12.125994 0 0 1 -15.145289,-8.0413 12.126168,12.125994 0 0 1 8.039085,-15.1463 12.126168,12.125994 0 0 1 15.147719,8.0367"
       sodipodi:end="5.9855085"
       sodipodi:start="5.9861128"
       sodipodi:ry="12.125994"
       sodipodi:rx="12.126168"
       sodipodi:cy="1035.6971"
       sodipodi:cx="82.995003"
       sodipodi:type="arc"
       id="path6059"
       style="fill:#c6b1ad;fill-opacity:1;fill-rule:evenodd;stroke:#000000;stroke-width:1.07368755px;stroke-linecap:butt;stroke-linejoin:miter;stroke-opacity:0" />
    <path
       style="fill:#c6b1ad;fill-opacity:1;fill-rule:evenodd;stroke:#000000;stroke-width:1.07368755px;stroke-linecap:butt;stroke-linejoin:miter;stroke-opacity:0"
       id="path6061"
       sodipodi:type="arc"
       sodipodi:cx="16.665176"
       sodipodi:cy="1035.6971"
       sodipodi:rx="12.126168"
       sodipodi:ry="12.125994"
       sodipodi:start="5.9861128"
       sodipodi:end="5.9855085"
       d="m 28.260188,1032.1476 a 12.126168,12.125994 0 0 1 -8.043661,15.1439 12.126168,12.125994 0 0 1 -15.1452897,-8.0413 12.126168,12.125994 0 0 1 8.0390857,-15.1463 12.126168,12.125994 0 0 1 15.147718,8.0367"
       sodipodi:open="true" />
    <path
       style="fill:#c6b1ad;fill-opacity:1;fill-rule:evenodd;stroke:#000000;stroke-width:1.07368755px;stroke-linecap:butt;stroke-linejoin:miter;stroke-opacity:0"
       id="path6065"
       sodipodi:type="arc"
       sodipodi:cx="49.995178"
       sodipodi:cy="1035.6971"
       sodipodi:rx="12.126168"
       sodipodi:ry="12.125994"
       sodipodi:start="5.9861128"
       sodipodi:end="5.9855085"
       d="m 61.59019,1032.1476 a 12.126168,12.125994 0 0 1 -8.043661,15.1439 12.126168,12.125994 0 0 1 -15.14529,-8.0413 12.126168,12.125994 0 0 1 8.039086,-15.1463 12.126168,12.125994 0 0 1 15.147718,8.0367"
       sodipodi:open="true" />
    <path
       sodipodi:open="true"
       d="m 61.59019,965.81764 a 12.126168,12.125994 0 0 1 -8.043661,15.14386 12.126168,12.125994 0 0 1 -15.14529,-8.04126 12.126168,12.125994 0 0 1 8.039086,-15.14629 12.126168,12.125994 0 0 1 15.147718,8.03668"
       sodipodi:end="5.9855085"
       sodipodi:start="5.9861128"
       sodipodi:ry="12.125994"
       sodipodi:rx="12.126168"
       sodipodi:cy="969.36719"
       sodipodi:cx="49.995178"
       sodipodi:type="arc"
       id="path6067"
       style="fill:#c6b1ad;fill-opacity:1;fill-rule:evenodd;stroke:#000000;stroke-width:1.07368755px;stroke-linecap:butt;stroke-linejoin:miter;stroke-opacity:0" />
    <path
       style="fill:#c6b1ad;fill-opacity:1;fill-rule:evenodd;stroke:#000000;stroke-width:1.07368755px;stroke-linecap:butt;stroke-linejoin:miter;stroke-opacity:0"
       id="path6069"
       sodipodi:type="arc"
       sodipodi:cx="16.665176"
       sodipodi:cy="969.36719"
       sodipodi:rx="12.126168"
       sodipodi:ry="12.125994"
       sodipodi:start="5.9861128"
       sodipodi:end="5.9855085"
       d="m 28.260188,965.81764 a 12.126168,12.125994 0 0 1 -8.043661,15.14386 12.126168,12.125994 0 0 1 -15.1452897,-8.04126 12.126168,12.125994 0 0 1 8.0390857,-15.14629 12.126168,12.125994 0 0 1 15.147718,8.03668"
       sodipodi:open="true" />
    <path
       sodipodi:open="true"
       d="m 94.58985,965.81764 a 12.125996,12.125998 0 0 1 -8.043547,15.14386 12.125996,12.125998 0 0 1 -15.145074,-8.04126 12.125996,12.125998 0 0 1 8.038971,-15.14629 12.125996,12.125998 0 0 1 15.147503,8.03668"
       sodipodi:end="5.9855085"
       sodipodi:start="5.9861128"
       sodipodi:ry="12.125998"
       sodipodi:rx="12.125996"
       sodipodi:cy="969.36719"
       sodipodi:cx="82.995003"
       sodipodi:type="arc"
       id="path6071"
       style="fill:#c6b1ad;fill-opacity:1;fill-rule:evenodd;stroke:#000000;stroke-width:1.07368755px;stroke-linecap:butt;stroke-linejoin:miter;stroke-opacity:0" />
    <path
       style="fill:#c6b1ad;fill-opacity:1;fill-rule:evenodd;stroke:#000000;stroke-width:1.07368755px;stroke-linecap:butt;stroke-linejoin:miter;stroke-opacity:0"
       id="path6073"
       sodipodi:type="arc"
       sodipodi:cx="82.995003"
       sodipodi:cy="1002.3671"
       sodipodi:rx="12.125996"
       sodipodi:ry="12.125998"
       sodipodi:start="5.9861128"
       sodipodi:end="5.9855085"
       d="m 94.58985,998.81758 a 12.125996,12.125998 0 0 1 -8.043547,15.14382 12.125996,12.125998 0 0 1 -15.145074,-8.0412 12.125996,12.125998 0 0 1 8.038971,-15.14631 12.125996,12.125998 0 0 1 15.147503,8.03668"
       sodipodi:open="true" />
    <path
       sodipodi:open="true"
       d="m 28.260188,998.81764 a 12.126168,12.125994 0 0 1 -8.043661,15.14386 12.126168,12.125994 0 0 1 -15.1452897,-8.0413 12.126168,12.125994 0 0 1 8.0390857,-15.14625 12.126168,12.125994 0 0 1 15.147718,8.03668"
       sodipodi:end="5.9855085"
       sodipodi:start="5.9861128"
       sodipodi:ry="12.125994"
       sodipodi:rx="12.126168"
       sodipodi:cy="1002.3672"
       sodipodi:cx="16.665176"
       sodipodi:type="arc"
       id="path6075"
       style="fill:#c6b1ad;fill-opacity:1;fill-rule:evenodd;stroke:#000000;stroke-width:1.07368755px;stroke-linecap:butt;stroke-linejoin:miter;stroke-opacity:0" />
  </g>
</svg>
