<?xml version="1.0" encoding="UTF-8" standalone="no"?>
<!-- Created with Inkscape (http://www.inkscape.org/) -->

<svg
   xmlns:dc="http://purl.org/dc/elements/1.1/"
   xmlns:cc="http://creativecommons.org/ns#"
   xmlns:rdf="http://www.w3.org/1999/02/22-rdf-syntax-ns#"
   xmlns:svg="http://www.w3.org/2000/svg"
   xmlns="http://www.w3.org/2000/svg"
   xmlns:xlink="http://www.w3.org/1999/xlink"
   xmlns:sodipodi="http://sodipodi.sourceforge.net/DTD/sodipodi-0.dtd"
   xmlns:inkscape="http://www.inkscape.org/namespaces/inkscape"
   width="744.28125"
   height="183.24911"
   viewBox="0 0 744.28125 183.24911"
   id="svg2"
   version="1.1"
   inkscape:version="0.91 r13725"
   sodipodi:docname="logo_pipettor_LAB_science_made_clear_noborder.svg">
  <defs
     id="defs4">
    <linearGradient
       id="light_to_dark_blue-gray">
      <stop
         id="stop4454"
         offset="0"
         style="stop-color:#f4fbfd;stop-opacity:1;" />
      <stop
         id="stop4446"
         offset="1"
         style="stop-color:#daeaf3;stop-opacity:1;" />
    </linearGradient>
    <radialGradient
       inkscape:collect="always"
       xlink:href="#light_to_dark_blue-gray"
       id="radialGradient4462"
       cx="357.05136"
       cy="873.74866"
       fx="357.05136"
       fy="873.74866"
       r="127.39843"
       gradientTransform="matrix(1,0,0,0.49756429,0,439.00252)"
       gradientUnits="userSpaceOnUse" />
  </defs>
  <sodipodi:namedview
     id="base"
     pagecolor="#ffffff"
     bordercolor="#666666"
     borderopacity="1.0"
     inkscape:pageopacity="0.0"
     inkscape:pageshadow="2"
     inkscape:zoom="1.4142136"
     inkscape:cx="455.73825"
     inkscape:cy="56.492205"
     inkscape:document-units="px"
     inkscape:current-layer="layer1"
     showgrid="false"
     units="px"
     inkscape:window-width="1440"
     inkscape:window-height="849"
     inkscape:window-x="0"
     inkscape:window-y="0"
     inkscape:window-maximized="0"
     fit-margin-top="10"
     fit-margin-left="10"
     fit-margin-right="10"
     fit-margin-bottom="10" />
  <metadata
     id="metadata7">
    <rdf:RDF>
      <cc:Work
         rdf:about="">
        <dc:format>image/svg+xml</dc:format>
        <dc:type
           rdf:resource="http://purl.org/dc/dcmitype/StillImage" />
        <dc:title></dc:title>
      </cc:Work>
    </rdf:RDF>
  </metadata>
  <g
     inkscape:label="Layer 1"
     inkscape:groupmode="layer"
     id="layer1"
     transform="translate(-186.53503,-782.61896)">
    <rect
       style="opacity:1;fill:#ffffff;fill-opacity:1;stroke:none;stroke-width:0.98800832;stroke-opacity:1"
       id="rect4498"
       width="101.83537"
       height="143.19701"
       x="811.61145"
       y="802.68109"
       rx="0.036071755"
       ry="0.019314693" />
    <rect
       style="opacity:1;fill:#a2a0aa;fill-opacity:1;stroke:none;stroke-opacity:1"
       id="rect3501"
       width="606.19312"
       height="143.19656"
       x="205.9696"
       y="802.68115"
       rx="0.036554798"
       ry="0.022342712" />
    <path
       style="fill:#000000"
       d="m 530.49786,881.89933 c 4.75604,-2.26167 8.19735,-4.25287 7.64735,-4.42488 -0.55,-0.17201 -4.7125,-0.49713 -9.25,-0.72249 l -8.25,-0.40975 0,4.83463 c 0,5.81467 -0.7413,5.76031 9.85265,0.72249 z"
       id="path3501"
       inkscape:connector-curvature="0" />
    <rect
       style="fill:#daeaf3;fill-opacity:1;stroke:#000000;stroke-width:1.29697537;stroke-opacity:0"
       id="rect22725"
       width="589.22784"
       height="12.409476"
       x="214.3042"
       y="874.44812"
       rx="1.979721"
       ry="8.0382347" />
    <path
       style="fill:#222327;fill-opacity:1"
       d="m 224.78443,907.61887 c 2.91811,-2.3613 3.91461,-14.36458 3.0719,-37.00238 -0.59587,-16.00696 -1.42527,-18.0873 -7.21112,-18.0873 -6.69836,0 -7.00175,1.22709 -6.98469,28.25 0.0158,24.95401 0.10212,25.63692 3.48469,27.55505 2.89694,1.64275 4.96428,1.44916 7.63922,-0.71537 z"
       id="path21882"
       inkscape:connector-curvature="0" />
    <path
       style="fill:#daeaf3;fill-opacity:1;stroke:none"
       d="m 519.39291,882.22648 c 0.24597,-20.10256 -0.0863,-28.77848 -1.13981,-29.75 -1.98612,-1.83176 -36.42532,-1.984 -38.7933,-0.1715 -1.72168,1.31782 -2.35595,56.86336 -0.66411,58.15835 0.49701,0.38042 9.75658,0.56792 20.5768,0.41666 l 19.67317,-0.27501 0.34725,-28.3785 z"
       id="path21884"
       inkscape:connector-curvature="0" />
    <path
       inkscape:connector-curvature="0"
       id="path22737"
       d="m 562.63557,881.40298 c 0.27194,-12.06744 -0.0954,-17.27554 -1.26012,-17.85874 -2.19578,-1.0996 -40.27033,-1.19099 -42.88828,-0.10295 -1.90341,0.79108 -2.60464,34.13473 -0.73421,34.91211 0.54948,0.22836 10.78647,0.34091 22.74886,0.25011 l 21.74985,-0.16508 0.3839,-17.03545 z"
       style="fill:#daeaf3;fill-opacity:1" />
    <path
       style="fill:#222327;fill-opacity:1"
       d="m 542.65223,907.02163 35.49997,-17.98262 108.06608,-0.53634 108.06609,-0.53634 0,-8.58146 0,-8.58146 -5.22059,0 -5.22057,0 -0.3171,4.47536 c -0.1744,2.46144 -0.91404,4.98433 -1.64364,5.60641 -0.90537,0.77196 -34.47996,1.2242 -105.74735,1.4244 l -104.42081,0.29334 -17.13531,8.58146 c -9.42442,4.7198 -19.72221,10.12632 -22.88398,12.0145 -3.16175,1.88816 -10.81669,5.64976 -17.01097,8.35907 -11.14048,4.87279 -11.4002,4.92845 -24.01467,5.14843 -12.47529,0.21754 -12.75986,0.2765 -13.09599,2.71392 -0.73869,5.35645 -0.20392,5.5525 15.1895,5.56876 l 14.38937,0.0152 35.49997,-17.98262 z"
       id="path21886"
       inkscape:connector-curvature="0" />
    <path
       style="fill:#222327;fill-opacity:1"
       d="m 250.91591,930.53258 c 1.21474,-2.04058 2.70304,-2.32122 12.30954,-2.32122 12.7021,0 12.52545,0.25254 8.34172,-11.92507 -3.35659,-9.77007 -4.20554,-10.30514 -15.69074,-9.88933 l -9.47887,0.34316 -0.37228,11.52347 c -0.20475,6.3379 -0.0778,12.21347 0.28223,13.05683 0.9525,2.23156 3.02154,1.87783 4.6084,-0.78784 z"
       id="path21888"
       inkscape:connector-curvature="0" />
    <path
       inkscape:connector-curvature="0"
       id="path22727"
       d="m 302.5083,896.6149 c 3.82314,-1.41473 5.1287,-8.60627 4.02463,-22.16928 -0.78067,-9.59027 -1.86731,-10.83667 -9.44759,-10.83667 -8.7758,0 -9.17329,0.73519 -9.15093,16.92546 0.0206,14.95073 0.13379,15.35988 4.56543,16.50909 3.7954,0.98422 6.50391,0.86824 10.00846,-0.4286 z"
       style="fill:#222327;fill-opacity:1" />
    <path
       inkscape:connector-curvature="0"
       style="fill:url(#radialGradient4462);fill-opacity:1"
       d="m 239.3913,810.35973 c -8.97462,0 -9.74767,1.02507 -9.73828,12.9043 0.0114,14.37239 4.55073,49.63532 7.54297,58.5957 6.25186,18.72145 7.1791,20.08225 14.33399,21.02735 2.53823,0.33527 5.51523,0.99339 6.61523,1.46289 1.1,0.4695 3.26766,1.12943 4.81641,1.46679 3.27759,0.71397 4.82284,3.79232 7.42578,14.79102 0.94374,3.98777 2.10669,7.4161 2.58398,7.61719 0.47729,0.2011 2.41051,1.7207 4.29688,3.37695 6.42348,5.63989 7.98296,5.84664 40.37695,5.36914 16.225,-0.23916 36.25,-1.13492 44.5,-1.99219 8.25,-0.85728 29.625,-2.26367 47.5,-3.125 76.94631,-3.70772 72.65947,-3.17802 74.20508,-9.18554 0.45148,-1.75483 0.70335,-18.62982 0.55859,-37.5 l -0.26367,-34.3086 -8.5,-0.70312 c -9.5805,-0.7929 -60.58388,-2.31334 -127.5,-3.80078 -82.34616,-1.83044 -83.83302,-2.21661 -94.5,-24.49805 -5.43492,-11.35259 -5.61716,-11.49805 -14.25391,-11.49805 z m 46.43164,50.91211 47.35743,0 c 2.68024,0 4.83789,3.67072 4.83789,8.23047 l 0,22.94922 c 0,4.55975 -2.15765,8.23047 -4.83789,8.23047 l -47.35743,0 c -2.68024,0 -4.83789,-3.67072 -4.83789,-8.23047 l 0,-22.94922 c 0,-4.55975 2.15765,-8.23047 4.83789,-8.23047 z"
       id="path21910" />
    <path
       style="fill:#222327;fill-opacity:1"
       d="m 376.64521,880.97692 0,-15.02102 43.75,0.26051 43.75,0.26051 0,14.5 0,14.5 -43.75,0.26051 -43.75,0.26051 0,-15.02102 z"
       id="path21896"
       inkscape:connector-curvature="0" />
    <rect
       style="fill:#ffffff;fill-opacity:1;stroke:#222327;stroke-opacity:1"
       id="rect22729"
       width="23.844324"
       height="22.116476"
       x="380.84915"
       y="869.86292"
       rx="0"
       ry="1.3822798" />
    <rect
       ry="1.3822798"
       rx="0"
       y="869.86292"
       x="408.8403"
       height="22.116476"
       width="23.844324"
       id="rect22731"
       style="fill:#ffffff;fill-opacity:1;stroke:#000000;stroke-opacity:0" />
    <rect
       style="fill:#ffffff;fill-opacity:1;stroke:#000000;stroke-opacity:0"
       id="rect22733"
       width="23.844324"
       height="22.116476"
       x="436.83148"
       y="869.86292"
       rx="0"
       ry="1.3822798" />
    <rect
       style="fill:#daeaf3;fill-opacity:1;stroke:none;stroke-width:0.68353623;stroke-opacity:1"
       id="rect22735"
       width="5.1284456"
       height="59.939045"
       x="482.86728"
       y="851.09528"
       rx="0.2825174"
       ry="8.0808954" />
    <text
       xml:space="preserve"
       style="font-style:normal;font-weight:normal;font-size:40px;line-height:113.99999857%;font-family:sans-serif;letter-spacing:0px;word-spacing:0px;fill:#222327;fill-opacity:1;stroke:none;stroke-width:1px;stroke-linecap:butt;stroke-linejoin:miter;stroke-opacity:1"
       x="383.61371"
       y="889.56042"
       id="text22762"
       sodipodi:linespacing="114%"><tspan
         sodipodi:role="line"
         id="tspan22764"
         x="383.61371"
         y="889.56042"
         style="font-style:normal;font-variant:normal;font-weight:bold;font-stretch:normal;font-size:23.75px;line-height:113.99999857%;font-family:monospace;-inkscape-font-specification:'monospace Bold';fill:#222327;fill-opacity:1">L</tspan></text>
    <text
       sodipodi:linespacing="114%"
       id="text22766"
       y="889.56042"
       x="413.25931"
       style="font-style:normal;font-weight:normal;font-size:40px;line-height:113.99999857%;font-family:sans-serif;letter-spacing:0px;word-spacing:0px;fill:#222327;fill-opacity:1;stroke:none;stroke-width:1px;stroke-linecap:butt;stroke-linejoin:miter;stroke-opacity:1"
       xml:space="preserve"><tspan
         style="font-style:normal;font-variant:normal;font-weight:bold;font-stretch:normal;font-size:23.75px;line-height:113.99999857%;font-family:monospace;-inkscape-font-specification:'monospace Bold';fill:#222327;fill-opacity:1"
         y="889.56042"
         x="413.25931"
         id="tspan22768"
         sodipodi:role="line">A</tspan></text>
    <text
       xml:space="preserve"
       style="font-style:normal;font-weight:normal;font-size:40px;line-height:113.99999857%;font-family:sans-serif;letter-spacing:0px;word-spacing:0px;fill:#222327;fill-opacity:1;stroke:none;stroke-width:1px;stroke-linecap:butt;stroke-linejoin:miter;stroke-opacity:1"
       x="441.94162"
       y="889.58362"
       id="text22770"
       sodipodi:linespacing="114%"><tspan
         sodipodi:role="line"
         id="tspan22772"
         x="441.94162"
         y="889.58362"
         style="font-style:normal;font-variant:normal;font-weight:bold;font-stretch:normal;font-size:23.75px;line-height:113.99999857%;font-family:mono;-inkscape-font-specification:'mono Bold';fill:#222327;fill-opacity:1">B</tspan></text>
    <text
       xml:space="preserve"
       style="font-style:normal;font-weight:normal;font-size:40px;line-height:125%;font-family:sans-serif;letter-spacing:0px;word-spacing:0px;fill:#000000;fill-opacity:1;stroke:none;stroke-width:1px;stroke-linecap:butt;stroke-linejoin:miter;stroke-opacity:1"
       x="569.74634"
       y="927.10321"
       id="text3489"
       sodipodi:linespacing="125%"><tspan
         sodipodi:role="line"
         id="tspan3491"
         x="569.74634"
         y="927.10321"
         style="font-style:normal;font-variant:normal;font-weight:normal;font-stretch:normal;font-family:Optima;-inkscape-font-specification:Optima"><tspan
           style="fill:#ffffff"
           id="tspan4311">science made</tspan><tspan
           style="fill:#222327;fill-opacity:1"
           id="tspan4492"> clear</tspan></tspan></text>
    <flowRoot
       xml:space="preserve"
       id="flowRoot3493"
       style="font-style:normal;font-weight:normal;font-size:40px;line-height:125%;font-family:sans-serif;letter-spacing:0px;word-spacing:0px;fill:#000000;fill-opacity:1;stroke:none;stroke-width:1px;stroke-linecap:butt;stroke-linejoin:miter;stroke-opacity:1"><flowRegion
         id="flowRegion3495"><rect
           id="rect3497"
           width="10.101525"
           height="86.873116"
           x="763.67535"
           y="829.76642" /></flowRegion><flowPara
         id="flowPara3499" /></flowRoot>    <text
       xml:space="preserve"
       style="font-style:normal;font-weight:normal;font-size:40px;line-height:125%;font-family:sans-serif;letter-spacing:0px;word-spacing:0px;fill:#000000;fill-opacity:1;stroke:none;stroke-width:1px;stroke-linecap:butt;stroke-linejoin:miter;stroke-opacity:1"
       x="454.64285"
       y="984.14789"
       id="text4488"
       sodipodi:linespacing="125%"><tspan
         sodipodi:role="line"
         id="tspan4490"
         x="454.64285"
         y="984.14789" /></text>
  </g>
</svg>
