<?xml version="1.0" encoding="UTF-8" standalone="no"?>
<!-- Created with Inkscape (http://www.inkscape.org/) -->

<svg
   xmlns:osb="http://www.openswatchbook.org/uri/2009/osb"
   xmlns:dc="http://purl.org/dc/elements/1.1/"
   xmlns:cc="http://creativecommons.org/ns#"
   xmlns:rdf="http://www.w3.org/1999/02/22-rdf-syntax-ns#"
   xmlns:svg="http://www.w3.org/2000/svg"
   xmlns="http://www.w3.org/2000/svg"
   xmlns:xlink="http://www.w3.org/1999/xlink"
   xmlns:sodipodi="http://sodipodi.sourceforge.net/DTD/sodipodi-0.dtd"
   xmlns:inkscape="http://www.inkscape.org/namespaces/inkscape"
   width="744.28125"
   height="183.24911"
   viewBox="0 0 744.28125 183.24911"
   id="svg2"
   version="1.1"
   inkscape:version="0.91 r13725"
   sodipodi:docname="logo_pipettor_LAB_science_made_clear_noborder.svg">
  <defs
     id="defs4">
    <linearGradient
       id="linearGradient5816"
       osb:paint="solid">
      <stop
         style="stop-color:#daeaf3;stop-opacity:1;"
         offset="0"
         id="stop5818" />
    </linearGradient>
    <linearGradient
       id="light_to_dark_blue-gray">
      <stop
         id="stop4454"
         offset="0"
         style="stop-color:#f4fbfd;stop-opacity:1;" />
      <stop
         id="stop4446"
         offset="1"
         style="stop-color:#daeaf3;stop-opacity:1;" />
    </linearGradient>
    <linearGradient
       inkscape:collect="always"
       xlink:href="#linearGradient5816"
       id="linearGradient5820"
       x1="43.117105"
       y1="91.12914"
       x2="376.18494"
       y2="91.12914"
       gradientUnits="userSpaceOnUse" />
  </defs>
  <sodipodi:namedview
     id="base"
     pagecolor="#ffffff"
     bordercolor="#666666"
     borderopacity="1.0"
     inkscape:pageopacity="0.0"
     inkscape:pageshadow="2"
     inkscape:zoom="0.50000001"
     inkscape:cx="366.54327"
     inkscape:cy="95.818909"
     inkscape:document-units="px"
     inkscape:current-layer="layer1"
     showgrid="false"
     units="px"
     inkscape:window-width="852"
     inkscape:window-height="438"
     inkscape:window-x="572"
     inkscape:window-y="10"
     inkscape:window-maximized="0"
     fit-margin-top="10"
     fit-margin-left="10"
     fit-margin-right="10"
     fit-margin-bottom="10" />
  <metadata
     id="metadata7">
    <rdf:RDF>
      <cc:Work
         rdf:about="">
        <dc:format>image/svg+xml</dc:format>
        <dc:type
           rdf:resource="http://purl.org/dc/dcmitype/StillImage" />
        <dc:title />
      </cc:Work>
    </rdf:RDF>
  </metadata>
  <g
     inkscape:label="Layer 1"
     inkscape:groupmode="layer"
     id="layer1"
     transform="translate(-186.53503,-782.61896)">
    <rect
       style="opacity:1;fill:#ffffff;fill-opacity:1;stroke:none;stroke-width:0.98800832;stroke-opacity:1"
       id="rect4498"
       width="101.83537"
       height="143.19701"
       x="811.61145"
       y="802.68109"
       rx="0.036071755"
       ry="0.019314693" />
    <rect
       style="opacity:1;fill:#a2a0aa;fill-opacity:1;stroke:none;stroke-opacity:1"
       id="rect3501"
       width="606.19312"
       height="143.19656"
       x="205.9696"
       y="802.68115"
       rx="0.036554798"
       ry="0.022342712" />
    <path
       style="fill:#000000"
       d="m 530.49786,881.89933 c 4.75604,-2.26167 8.19735,-4.25287 7.64735,-4.42488 -0.55,-0.17201 -4.7125,-0.49713 -9.25,-0.72249 l -8.25,-0.40975 0,4.83463 c 0,5.81467 -0.7413,5.76031 9.85265,0.72249 z"
       id="path3501"
       inkscape:connector-curvature="0" />
    <rect
       style="fill:#daeaf3;fill-opacity:1;stroke:#000000;stroke-width:1.29697537;stroke-opacity:0"
       id="rect22725"
       width="589.22784"
       height="12.409476"
       x="214.3042"
       y="874.44812"
       rx="1.979721"
       ry="8.0382347" />
    <path
       style="fill:#222327;fill-opacity:1"
       d="m 224.78443,907.61887 c 2.91811,-2.3613 3.91461,-14.36458 3.0719,-37.00238 -0.59587,-16.00696 -1.42527,-18.0873 -7.21112,-18.0873 -6.69836,0 -7.00175,1.22709 -6.98469,28.25 0.0158,24.95401 0.10212,25.63692 3.48469,27.55505 2.89694,1.64275 4.96428,1.44916 7.63922,-0.71537 z"
       id="path21882"
       inkscape:connector-curvature="0" />
    <path
       style="fill:url(#linearGradient5820);fill-opacity:1;stroke:none"
       d="M 52.855469 27.740234 C 43.880849 27.740234 43.107798 28.765301 43.117188 40.644531 C 43.128588 55.016921 47.667916 90.279854 50.660156 99.240234 C 56.912016 117.96168 57.839251 119.32248 64.994141 120.26758 C 67.532371 120.60285 70.509375 121.26097 71.609375 121.73047 C 72.709375 122.19997 74.877031 122.85991 76.425781 123.19727 C 79.703371 123.91124 81.248623 126.98958 83.851562 137.98828 C 84.795302 141.97605 85.958257 145.40438 86.435547 145.60547 C 86.912837 145.80657 88.846052 147.32617 90.732422 148.98242 C 97.155902 154.62231 98.715385 154.82906 131.10938 154.35156 C 147.33438 154.1124 167.35938 153.21665 175.60938 152.35938 C 183.85938 151.5021 205.23438 150.0957 223.10938 149.23438 C 300.05568 145.52666 295.76884 146.05635 297.31445 140.04883 C 297.53078 139.20799 297.69778 134.75588 297.80078 128.41602 L 301.17773 128.41602 C 301.19451 128.41602 301.2106 128.35487 301.22656 128.27539 C 304.60013 128.31434 308.49686 128.3224 312.83789 128.26172 L 332.50977 127.98633 L 332.6582 115.85156 C 335.88094 115.9971 344.31441 116.05764 353.9668 115.98438 L 375.7168 115.82031 L 376.09961 98.783203 C 376.37155 86.715763 376.00456 81.508981 374.83984 80.925781 C 372.78263 79.895573 339.23665 79.750307 332.85742 80.630859 C 332.71094 73.822404 332.34519 70.43511 331.71875 69.857422 C 330.29503 68.544355 312.23512 68.099152 301.22656 68.617188 C 301.2106 68.537705 301.19451 68.476562 301.17773 68.476562 L 297.61133 68.476562 L 297.60938 68.240234 L 289.10938 67.537109 C 279.52887 66.744209 228.52549 65.223768 161.60938 63.736328 C 79.263215 61.905888 77.776355 61.519721 67.109375 39.238281 C 61.674455 27.885691 61.492219 27.740234 52.855469 27.740234 z M 99.287109 78.652344 L 146.64453 78.652344 C 149.32477 78.652344 151.48242 82.323062 151.48242 86.882812 L 151.48242 109.83203 C 151.48242 114.39178 149.32477 118.0625 146.64453 118.0625 L 99.287109 118.0625 C 96.606869 118.0625 94.449219 114.39178 94.449219 109.83203 L 94.449219 86.882812 C 94.449219 82.323062 96.606869 78.652344 99.287109 78.652344 z "
       transform="translate(186.53503,782.61896)"
       id="path21884" />
    <path
       style="fill:#222327;fill-opacity:1"
       d="m 542.65223,907.02163 35.49997,-17.98262 108.06608,-0.53634 108.06609,-0.53634 0,-8.58146 0,-8.58146 -5.22059,0 -5.22057,0 -0.3171,4.47536 c -0.1744,2.46144 -0.91404,4.98433 -1.64364,5.60641 -0.90537,0.77196 -34.47996,1.2242 -105.74735,1.4244 l -104.42081,0.29334 -17.13531,8.58146 c -9.42442,4.7198 -19.72221,10.12632 -22.88398,12.0145 -3.16175,1.88816 -10.81669,5.64976 -17.01097,8.35907 -11.14048,4.87279 -11.4002,4.92845 -24.01467,5.14843 -12.47529,0.21754 -12.75986,0.2765 -13.09599,2.71392 -0.73869,5.35645 -0.20392,5.5525 15.1895,5.56876 l 14.38937,0.0152 35.49997,-17.98262 z"
       id="path21886"
       inkscape:connector-curvature="0" />
    <path
       style="fill:#222327;fill-opacity:1"
       d="m 250.91591,930.53258 c 1.21474,-2.04058 2.70304,-2.32122 12.30954,-2.32122 12.7021,0 12.52545,0.25254 8.34172,-11.92507 -3.35659,-9.77007 -4.20554,-10.30514 -15.69074,-9.88933 l -9.47887,0.34316 -0.37228,11.52347 c -0.20475,6.3379 -0.0778,12.21347 0.28223,13.05683 0.9525,2.23156 3.02154,1.87783 4.6084,-0.78784 z"
       id="path21888"
       inkscape:connector-curvature="0" />
    <path
       inkscape:connector-curvature="0"
       id="path22727"
       d="m 302.5083,896.6149 c 3.82314,-1.41473 5.1287,-8.60627 4.02463,-22.16928 -0.78067,-9.59027 -1.86731,-10.83667 -9.44759,-10.83667 -8.7758,0 -9.17329,0.73519 -9.15093,16.92546 0.0206,14.95073 0.13379,15.35988 4.56543,16.50909 3.7954,0.98422 6.50391,0.86824 10.00846,-0.4286 z"
       style="fill:#222327;fill-opacity:1" />
    <path
       style="fill:#222327;fill-opacity:1"
       d="m 376.64521,880.97692 0,-15.02102 43.75,0.26051 43.75,0.26051 0,14.5 0,14.5 -43.75,0.26051 -43.75,0.26051 0,-15.02102 z"
       id="path21896"
       inkscape:connector-curvature="0" />
    <rect
       style="fill:#ffffff;fill-opacity:1;stroke:#222327;stroke-opacity:1"
       id="rect22729"
       width="23.844324"
       height="22.116476"
       x="380.84915"
       y="869.86292"
       rx="0"
       ry="1.3822798" />
    <rect
       ry="1.3822798"
       rx="0"
       y="869.86292"
       x="408.8403"
       height="22.116476"
       width="23.844324"
       id="rect22731"
       style="fill:#ffffff;fill-opacity:1;stroke:#000000;stroke-opacity:0" />
    <rect
       style="fill:#ffffff;fill-opacity:1;stroke:#000000;stroke-opacity:0"
       id="rect22733"
       width="23.844324"
       height="22.116476"
       x="436.83148"
       y="869.86292"
       rx="0"
       ry="1.3822798" />
    <text
       xml:space="preserve"
       style="font-style:normal;font-weight:normal;font-size:40px;line-height:113.99999857%;font-family:sans-serif;letter-spacing:0px;word-spacing:0px;fill:#222327;fill-opacity:1;stroke:none;stroke-width:1px;stroke-linecap:butt;stroke-linejoin:miter;stroke-opacity:1"
       x="383.61371"
       y="889.56042"
       id="text22762"
       sodipodi:linespacing="114%"><tspan
         sodipodi:role="line"
         id="tspan22764"
         x="383.61371"
         y="889.56042"
         style="font-style:normal;font-variant:normal;font-weight:bold;font-stretch:normal;font-size:23.75px;line-height:113.99999857%;font-family:monospace;-inkscape-font-specification:'monospace Bold';fill:#222327;fill-opacity:1">L</tspan></text>
    <text
       sodipodi:linespacing="114%"
       id="text22766"
       y="889.56042"
       x="413.25931"
       style="font-style:normal;font-weight:normal;font-size:40px;line-height:113.99999857%;font-family:sans-serif;letter-spacing:0px;word-spacing:0px;fill:#222327;fill-opacity:1;stroke:none;stroke-width:1px;stroke-linecap:butt;stroke-linejoin:miter;stroke-opacity:1"
       xml:space="preserve"><tspan
         style="font-style:normal;font-variant:normal;font-weight:bold;font-stretch:normal;font-size:23.75px;line-height:113.99999857%;font-family:monospace;-inkscape-font-specification:'monospace Bold';fill:#222327;fill-opacity:1"
         y="889.56042"
         x="413.25931"
         id="tspan22768"
         sodipodi:role="line">A</tspan></text>
    <text
       xml:space="preserve"
       style="font-style:normal;font-weight:normal;font-size:40px;line-height:113.99999857%;font-family:sans-serif;letter-spacing:0px;word-spacing:0px;fill:#222327;fill-opacity:1;stroke:none;stroke-width:1px;stroke-linecap:butt;stroke-linejoin:miter;stroke-opacity:1"
       x="441.94162"
       y="889.58362"
       id="text22770"
       sodipodi:linespacing="114%"><tspan
         sodipodi:role="line"
         id="tspan22772"
         x="441.94162"
         y="889.58362"
         style="font-style:normal;font-variant:normal;font-weight:bold;font-stretch:normal;font-size:23.75px;line-height:113.99999857%;font-family:mono;-inkscape-font-specification:'mono Bold';fill:#222327;fill-opacity:1">B</tspan></text>
    <text
       xml:space="preserve"
       style="font-style:normal;font-weight:normal;font-size:40px;line-height:125%;font-family:sans-serif;letter-spacing:0px;word-spacing:0px;fill:#000000;fill-opacity:1;stroke:none;stroke-width:1px;stroke-linecap:butt;stroke-linejoin:miter;stroke-opacity:1"
       x="569.74634"
       y="927.10321"
       id="text3489"
       sodipodi:linespacing="125%"><tspan
         sodipodi:role="line"
         id="tspan3491"
         x="569.74634"
         y="927.10321"
         style="font-style:normal;font-variant:normal;font-weight:normal;font-stretch:normal;font-family:Optima;-inkscape-font-specification:Optima"><tspan
           style="fill:#ffffff"
           id="tspan4311">science made</tspan><tspan
           style="fill:#222327;fill-opacity:1"
           id="tspan4492"> clear</tspan></tspan></text>
    <flowRoot
       xml:space="preserve"
       id="flowRoot3493"
       style="font-style:normal;font-weight:normal;font-size:40px;line-height:125%;font-family:sans-serif;letter-spacing:0px;word-spacing:0px;fill:#000000;fill-opacity:1;stroke:none;stroke-width:1px;stroke-linecap:butt;stroke-linejoin:miter;stroke-opacity:1"><flowRegion
         id="flowRegion3495"><rect
           id="rect3497"
           width="10.101525"
           height="86.873116"
           x="763.67535"
           y="829.76642" /></flowRegion><flowPara
         id="flowPara3499" /></flowRoot>    <text
       xml:space="preserve"
       style="font-style:normal;font-weight:normal;font-size:40px;line-height:125%;font-family:sans-serif;letter-spacing:0px;word-spacing:0px;fill:#000000;fill-opacity:1;stroke:none;stroke-width:1px;stroke-linecap:butt;stroke-linejoin:miter;stroke-opacity:1"
       x="454.64285"
       y="984.14789"
       id="text4488"
       sodipodi:linespacing="125%"><tspan
         sodipodi:role="line"
         id="tspan4490"
         x="454.64285"
         y="984.14789" /></text>
  </g>
</svg>
